<svg data-v-5f19e91b="" xmlns="http://www.w3.org/2000/svg" width="388" height="55" viewBox="0 0 388 55"><!----> <!----> <!----> <g data-v-5f19e91b="" id="fcd49300-423e-3bfc-cb64-aed75ed07e83" fill="white" transform="matrix(5.763688845290021,0,0,5.763688845290021,79.50171520353607,-18.169599945222643)"><path d="M5.32 10.57L6.05 10.57L5.91 12.85L0.42 12.85L0.42 12.36L4.42 6.83L1.60 6.83L1.22 8.39L0.50 8.33L0.62 6.23L5.84 6.23L5.84 6.73L1.85 12.26L4.90 12.26L5.32 10.57ZM8.34 8.86L10.89 8.86L10.89 8.86Q11.40 8.86 11.56 8.65L11.56 8.65L11.56 8.65Q11.73 8.44 11.73 8.13L11.73 8.13L11.73 8.13Q11.73 7.84 11.61 7.57L11.61 7.57L11.61 7.57Q11.49 7.29 11.29 7.08L11.29 7.08L11.29 7.08Q11.09 6.87 10.82 6.75L10.82 6.75L10.82 6.75Q10.54 6.62 10.22 6.62L10.22 6.62L10.22 6.62Q9.93 6.62 9.61 6.74L9.61 6.74L9.61 6.74Q9.30 6.86 9.04 7.13L9.04 7.13L9.04 7.13Q8.78 7.41 8.59 7.83L8.59 7.83L8.59 7.83Q8.40 8.26 8.34 8.86L8.34 8.86ZM12.80 9.46L8.32 9.46L8.32 9.46Q8.34 10.77 8.96 11.47L8.96 11.47L8.96 11.47Q9.58 12.17 10.58 12.17L10.58 12.17L10.58 12.17Q11.26 12.17 11.70 11.89L11.70 11.89L11.70 11.89Q12.15 11.61 12.53 11.16L12.53 11.16L12.87 11.42L12.87 11.42Q12.50 12.18 11.82 12.62L11.82 12.62L11.82 12.62Q11.14 13.06 10.18 13.06L10.18 13.06L10.18 13.06Q9.46 13.06 8.89 12.82L8.89 12.82L8.89 12.82Q8.32 12.59 7.91 12.13L7.91 12.13L7.91 12.13Q7.50 11.68 7.28 11.03L7.28 11.03L7.28 11.03Q7.06 10.39 7.06 9.59L7.06 9.59L7.06 9.59Q7.06 8.79 7.31 8.13L7.31 8.13L7.31 8.13Q7.56 7.46 8.00 6.99L8.00 6.99L8.00 6.99Q8.44 6.51 9.03 6.24L9.03 6.24L9.03 6.24Q9.62 5.98 10.28 5.98L10.28 5.98L10.28 5.98Q10.82 5.98 11.30 6.16L11.30 6.16L11.30 6.16Q11.79 6.34 12.14 6.69L12.14 6.69L12.14 6.69Q12.49 7.04 12.69 7.55L12.69 7.55L12.69 7.55Q12.89 8.05 12.89 8.68L12.89 8.68L12.89 8.68Q12.89 8.92 12.87 9.11L12.87 9.11L12.87 9.11Q12.84 9.31 12.80 9.46L12.80 9.46ZM16.18 6.12L16.34 7.76L16.34 7.76Q16.70 6.92 17.24 6.45L17.24 6.45L17.24 6.45Q17.78 5.98 18.35 5.98L18.35 5.98L18.35 5.98Q18.66 5.98 18.95 6.14L18.95 6.14L18.95 6.14Q19.24 6.30 19.31 6.66L19.31 6.66L19.31 6.66Q19.31 7.01 19.07 7.22L19.07 7.22L19.07 7.22Q18.83 7.42 18.47 7.42L18.47 7.42L18.47 7.42Q18.03 7.42 17.67 7.07L17.67 7.07L17.57 6.97L17.57 6.97Q17.14 7.29 16.84 7.74L16.84 7.74L16.84 7.74Q16.55 8.18 16.35 8.81L16.35 8.81L16.35 9.91L16.35 9.91Q16.35 10.37 16.36 10.99L16.36 10.99L16.36 10.99Q16.37 11.61 16.38 12.14L16.38 12.14L17.53 12.35L17.53 12.85L14.14 12.85L14.14 12.35L15.15 12.17L15.15 12.17Q15.16 11.63 15.17 11.01L15.17 11.01L15.17 11.01Q15.18 10.39 15.18 9.91L15.18 9.91L15.18 9.20L15.18 9.20Q15.18 8.62 15.16 8.25L15.16 8.25L15.16 8.25Q15.15 7.87 15.13 7.45L15.13 7.45L14.03 7.32L14.03 6.83L15.97 5.98L16.18 6.12ZM21.98 7.59L21.98 11.48L21.98 11.48Q22.41 11.89 22.83 12.08L22.83 12.08L22.83 12.08Q23.25 12.26 23.65 12.26L23.65 12.26L23.65 12.26Q24.02 12.26 24.36 12.10L24.36 12.10L24.36 12.10Q24.70 11.93 24.95 11.59L24.95 11.59L24.95 11.59Q25.20 11.26 25.35 10.75L25.35 10.75L25.35 10.75Q25.49 10.25 25.49 9.58L25.49 9.58L25.49 9.58Q25.49 8.22 25.00 7.50L25.00 7.50L25.00 7.50Q24.51 6.78 23.72 6.78L23.72 6.78L23.72 6.78Q23.39 6.78 22.97 6.94L22.97 6.94L22.97 6.94Q22.55 7.11 21.98 7.59L21.98 7.59ZM21.94 4.75L21.94 7.06L21.94 7.06Q22.43 6.50 22.97 6.24L22.97 6.24L22.97 6.24Q23.51 5.98 24.09 5.98L24.09 5.98L24.09 5.98Q24.65 5.98 25.14 6.22L25.14 6.22L25.14 6.22Q25.62 6.45 25.98 6.91L25.98 6.91L25.98 6.91Q26.33 7.36 26.54 8.01L26.54 8.01L26.54 8.01Q26.75 8.65 26.75 9.46L26.75 9.46L26.75 9.46Q26.75 10.28 26.54 10.94L26.54 10.94L26.54 10.94Q26.32 11.61 25.94 12.08L25.94 12.08L25.94 12.08Q25.55 12.54 25.03 12.80L25.03 12.80L25.03 12.80Q24.50 13.06 23.88 13.06L23.88 13.06L23.88 13.06Q23.39 13.06 22.93 12.87L22.93 12.87L22.93 12.87Q22.47 12.67 22.04 12.18L22.04 12.18L21.92 12.18L21.84 12.99L19.73 12.85L19.73 12.35L20.78 12.15L20.78 12.15Q20.79 11.62 20.80 11.00L20.80 11.00L20.80 11.00Q20.80 10.37 20.80 9.91L20.80 9.91L20.80 3.91L19.66 3.77L19.66 3.28L21.80 2.65L21.99 2.76L21.94 4.75ZM31.23 6.62L31.23 6.62L31.23 6.62Q30.31 6.62 29.82 7.37L29.82 7.37L29.82 7.37Q29.33 8.12 29.33 9.55L29.33 9.55L29.33 9.55Q29.33 10.96 29.82 11.70L29.82 11.70L29.82 11.70Q30.31 12.43 31.23 12.43L31.23 12.43L31.23 12.43Q32.14 12.43 32.63 11.70L32.63 11.70L32.63 11.70Q33.12 10.96 33.12 9.55L33.12 9.55L33.12 9.55Q33.12 8.12 32.63 7.37L32.63 7.37L32.63 7.37Q32.14 6.62 31.23 6.62ZM31.23 5.98L31.23 5.98L31.23 5.98Q31.84 5.98 32.42 6.21L32.42 6.21L32.42 6.21Q33.00 6.44 33.45 6.90L33.45 6.90L33.45 6.90Q33.89 7.35 34.17 8.02L34.17 8.02L34.17 8.02Q34.45 8.68 34.45 9.55L34.45 9.55L34.45 9.55Q34.45 10.42 34.18 11.07L34.18 11.07L34.18 11.07Q33.91 11.73 33.45 12.17L33.45 12.17L33.45 12.17Q33.00 12.61 32.42 12.84L32.42 12.84L32.42 12.84Q31.84 13.06 31.23 13.06L31.23 13.06L31.23 13.06Q30.62 13.06 30.04 12.84L30.04 12.84L30.04 12.84Q29.46 12.61 29.01 12.17L29.01 12.17L29.01 12.17Q28.56 11.73 28.29 11.07L28.29 11.07L28.29 11.07Q28.01 10.42 28.01 9.55L28.01 9.55L28.01 9.55Q28.01 8.68 28.29 8.02L28.29 8.02L28.29 8.02Q28.56 7.35 29.02 6.90L29.02 6.90L29.02 6.90Q29.47 6.44 30.04 6.21L30.04 6.21L30.04 6.21Q30.62 5.98 31.23 5.98ZM36.88 13.06L36.88 13.06L36.88 13.06Q36.46 13.06 36.17 12.77L36.17 12.77L36.17 12.77Q35.88 12.47 35.88 12.07L35.88 12.07L35.88 12.07Q35.88 11.65 36.17 11.35L36.17 11.35L36.17 11.35Q36.46 11.06 36.88 11.06L36.88 11.06L36.88 11.06Q37.30 11.06 37.58 11.35L37.58 11.35L37.58 11.35Q37.87 11.65 37.87 12.07L37.87 12.07L37.87 12.07Q37.87 12.47 37.58 12.77L37.58 12.77L37.58 12.77Q37.30 13.06 36.88 13.06ZM44.63 11.07L44.98 11.26L44.98 11.26Q44.70 12.14 44.04 12.60L44.04 12.60L44.04 12.60Q43.37 13.06 42.36 13.06L42.36 13.06L42.36 13.06Q41.65 13.06 41.07 12.82L41.07 12.82L41.07 12.82Q40.49 12.57 40.08 12.11L40.08 12.11L40.08 12.11Q39.66 11.65 39.45 11.00L39.45 11.00L39.45 11.00Q39.23 10.35 39.23 9.55L39.23 9.55L39.23 9.55Q39.23 8.72 39.49 8.06L39.49 8.06L39.49 8.06Q39.76 7.39 40.22 6.93L40.22 6.93L40.22 6.93Q40.67 6.47 41.25 6.22L41.25 6.22L41.25 6.22Q41.83 5.98 42.46 5.98L42.46 5.98L42.46 5.98Q42.94 5.98 43.37 6.12L43.37 6.12L43.37 6.12Q43.79 6.26 44.12 6.50L44.12 6.50L44.12 6.50Q44.45 6.75 44.66 7.08L44.66 7.08L44.66 7.08Q44.87 7.41 44.94 7.80L44.94 7.80L44.94 7.80Q44.84 8.33 44.30 8.33L44.30 8.33L44.30 8.33Q43.95 8.33 43.78 8.14L43.78 8.14L43.78 8.14Q43.61 7.95 43.54 7.66L43.54 7.66L43.29 6.73L43.29 6.73Q43.09 6.66 42.90 6.64L42.90 6.64L42.90 6.64Q42.70 6.62 42.53 6.62L42.53 6.62L42.53 6.62Q41.62 6.62 41.04 7.34L41.04 7.34L41.04 7.34Q40.46 8.05 40.46 9.41L40.46 9.41L40.46 9.41Q40.46 10.75 41.08 11.46L41.08 11.46L41.08 11.46Q41.71 12.17 42.70 12.17L42.70 12.17L42.70 12.17Q43.30 12.17 43.81 11.89L43.81 11.89L43.81 11.89Q44.31 11.61 44.63 11.07L44.63 11.07ZM52.50 12.15L53.48 12.35L53.48 12.85L50.23 12.85L50.23 12.35L51.27 12.15L51.27 12.15Q51.28 11.63 51.29 11.02L51.29 11.02L51.29 11.02Q51.30 10.40 51.30 9.91L51.30 9.91L51.30 8.68L51.30 8.68Q51.30 7.73 51.03 7.35L51.03 7.35L51.03 7.35Q50.76 6.97 50.15 6.97L50.15 6.97L50.15 6.97Q49.66 6.97 49.20 7.18L49.20 7.18L49.20 7.18Q48.75 7.39 48.22 7.85L48.22 7.85L48.22 9.91L48.22 9.91Q48.22 10.37 48.22 11.00L48.22 11.00L48.22 11.00Q48.23 11.62 48.24 12.15L48.24 12.15L49.22 12.35L49.22 12.85L45.98 12.85L45.98 12.35L47.01 12.15L47.01 12.15Q47.03 11.62 47.03 11.00L47.03 11.00L47.03 11.00Q47.04 10.39 47.04 9.91L47.04 9.91L47.04 9.20L47.04 9.20Q47.04 8.62 47.03 8.25L47.03 8.25L47.03 8.25Q47.01 7.87 47.00 7.45L47.00 7.45L45.89 7.32L45.89 6.83L47.84 5.98L48.05 6.12L48.16 7.25L48.16 7.25Q48.68 6.68 49.34 6.33L49.34 6.33L49.34 6.33Q50.01 5.98 50.68 5.98L50.68 5.98L50.68 5.98Q51.59 5.98 52.03 6.58L52.03 6.58L52.03 6.58Q52.47 7.18 52.47 8.57L52.47 8.57L52.47 9.91L52.47 9.91Q52.47 10.40 52.48 11.01L52.48 11.01L52.48 11.01Q52.49 11.62 52.50 12.15L52.50 12.15Z"></path></g> <!----> <g data-v-5f19e91b="" id="5721c586-5bd3-68d6-703c-c13a1f08224b" transform="matrix(0.7760895623101128,0,0,0.7760895623101128,-6.743070891658135,-11.711498438643403)" stroke="none" fill="white"><path d="M76.734 39.465c-.85-2.409-11.043-11.771-13.528-11.771.002 0-17.586 7.223-20.345 7.919-5.115 1.296-27.667 7.024-21.75 40.195.157.891.598 2.039 1.237 3.221-2.33-.642-4.096-1.679-5.24-3.126-3.53-4.472-1.785-13.089-.247-20.694 1.806-8.93 3.516-17.366-2.658-20.754a2.552 2.552 0 0 0-3.481 1.052c-.673 1.266-.208 2.847 1.039 3.53 2.818 1.547 1.421 8.45.07 15.126-1.766 8.726-3.77 18.616 1.27 24.996C16.106 82.963 21.022 85 28.128 85h.046c.198 0 .388-.028.574-.071.252.047.504.071.757.071H55.93c.339 0 .68-.133 1.006-.23 1.005-.308 1.763-1.324 1.787-2.326.025-1.005.051-1.721-1.146-2.07-.375-.109-4.577.666-4.577-1.451v-8.244c0-6.009-5.131-11.087-10-11.087-4.872 0-10 5.078-10 11.087v7.374c0 .961-.553 1.737-1.5 1.737-.945 0-1.5-.776-1.5-1.737v-7.374c0-7.894 5.948-14.559 12.674-14.559 4.765 0 9.259 3.125 11.326 7.88 2.129.119 5.66.669 6.137 1.488.532.917 1.055 1.921 1.278 2.947.704 3.179 1.253 6.396 1.935 9.581.304 1.413.71 2.865 1.249 4.203C65.17 83.638 67.828 85 69.397 85h3.354c2.782 0 2.856-2.828 1.398-4.016-.692-.563-2.225.125-2.97-.307-3.208-1.865-2.394-15.517-2.74-18.06-.177-1.319-.03-2.562.471-3.771.76-1.832 5.418-13.861 7.824-19.381zM89.582 32.538c-.854-1.25-1.118-2.689-.775-4.129.408-1.721-.178-3.043-1.007-4.376-.529-.849-1.035-1.696-1.616-2.507-.554-.773-.723-1.783-.723-1.783s1.23-1.527 2.517-4.422c-1.999-.867-10.804 1.844-14.306 2.624-1.949.435-3.448 1.597-4.733 3.119a365.489 365.489 0 0 1-3.251 3.812c4.203 1.937 9.503 7.302 10.281 8.102 1.28 1.323 2.208 2.406 2.869 3.316.494-.143 1.028-.055 1.553.132.901.322 1.779.71 2.67 1.075.912.375 1.647.338 2.527-.156 1.564-.884 4.742-3.248 3.994-4.807z"></path></g></svg>