<svg data-v-1084b650="" xmlns="http://www.w3.org/2000/svg" viewBox="0 0 300 300"><!----> <!----> <rect data-v-1084b650="" fill="#ffffff" x="0" y="0" width="300px" height="300px" class="logo-background-square"></rect> <!----> <g data-v-1084b650="" id="d199244e-2fb0-53ab-3301-504ceb6a1c7e" fill="#2e3034" transform="matrix(2.8,0,0,2.8,117.21197366118432,128.04800338745116)"><path d="M2.93 1.96L2.93 11.40L2.93 11.40Q2.93 11.93 2.97 12.25L2.97 12.25L2.97 12.25Q3.01 12.57 3.14 12.75L3.14 12.75L3.14 12.75Q3.28 12.94 3.52 13.01L3.52 13.01L3.52 13.01Q3.77 13.08 4.17 13.09L4.17 13.09L4.17 13.58L0.31 13.58L0.31 13.09L0.31 13.09Q0.73 13.08 0.98 13.00L0.98 13.00L0.98 13.00Q1.23 12.92 1.38 12.75L1.38 12.75L1.38 12.75Q1.53 12.59 1.57 12.29L1.57 12.29L1.57 12.29Q1.62 11.98 1.62 11.49L1.62 11.49L1.62 5.46L1.62 5.46Q1.62 4.70 1.60 4.19L1.60 4.19L1.60 4.19Q1.58 3.68 1.54 3.50L1.54 3.50L1.54 3.50Q1.47 3.18 1.21 3.07L1.21 3.07L1.21 3.07Q0.95 2.95 0.28 2.95L0.28 2.95L0.28 2.48L2.93 1.96ZM11.42 11.89L11.86 12.28L11.86 12.28Q10.67 13.72 8.90 13.72L8.90 13.72L8.90 13.72Q8.08 13.72 7.41 13.45L7.41 13.45L7.41 13.45Q6.73 13.17 6.25 12.68L6.25 12.68L6.25 12.68Q5.77 12.18 5.50 11.49L5.50 11.49L5.50 11.49Q5.24 10.79 5.24 9.95L5.24 9.95L5.24 9.95Q5.24 9.10 5.52 8.37L5.52 8.37L5.52 8.37Q5.80 7.64 6.31 7.13L6.31 7.13L6.31 7.13Q6.82 6.61 7.53 6.31L7.53 6.31L7.53 6.31Q8.23 6.02 9.07 6.02L9.07 6.02L9.07 6.02Q10.43 6.02 11.17 6.75L11.17 6.75L11.17 6.75Q11.91 7.49 11.91 8.86L11.91 8.86L11.91 8.86Q11.91 9.06 11.84 9.10L11.84 9.10L11.84 9.10Q11.76 9.14 11.48 9.14L11.48 9.14L6.87 9.14L6.87 9.14Q6.85 9.25 6.83 9.41L6.83 9.41L6.83 9.41Q6.82 9.58 6.82 9.77L6.82 9.77L6.82 9.77Q6.82 10.50 6.99 11.10L6.99 11.10L6.99 11.10Q7.17 11.69 7.50 12.11L7.50 12.11L7.50 12.11Q7.83 12.53 8.28 12.76L8.28 12.76L8.28 12.76Q8.74 12.99 9.30 12.99L9.30 12.99L9.30 12.99Q9.88 12.99 10.39 12.73L10.39 12.73L10.39 12.73Q10.89 12.47 11.42 11.89L11.42 11.89ZM6.97 8.50L9.55 8.50L9.55 8.50Q9.83 8.50 10.00 8.48L10.00 8.48L10.00 8.48Q10.16 8.47 10.25 8.43L10.25 8.43L10.25 8.43Q10.33 8.39 10.36 8.31L10.36 8.31L10.36 8.31Q10.39 8.23 10.39 8.11L10.39 8.11L10.39 8.11Q10.39 7.46 9.97 7.08L9.97 7.08L9.97 7.08Q9.56 6.69 8.85 6.69L8.85 6.69L8.85 6.69Q7.34 6.69 6.97 8.50L6.97 8.50ZM15.68 10.88L15.68 11.35L15.68 11.35Q15.68 11.93 15.71 12.26L15.71 12.26L15.71 12.26Q15.74 12.60 15.85 12.78L15.85 12.78L15.85 12.78Q15.97 12.95 16.20 13.01L16.20 13.01L16.20 13.01Q16.42 13.06 16.83 13.09L16.83 13.09L16.83 13.58L13.10 13.58L13.10 13.09L13.10 13.09Q13.51 13.08 13.75 13.01L13.75 13.01L13.75 13.01Q13.99 12.95 14.11 12.78L14.11 12.78L14.11 12.78Q14.24 12.61 14.27 12.30L14.27 12.30L14.27 12.30Q14.31 11.98 14.31 11.45L14.31 11.45L14.31 9.81L14.31 9.81Q14.31 8.86 14.29 8.33L14.29 8.33L14.29 8.33Q14.27 7.80 14.15 7.55L14.15 7.55L14.15 7.55Q14.03 7.29 13.78 7.25L13.78 7.25L13.78 7.25Q13.52 7.20 13.08 7.20L13.08 7.20L13.08 6.71L15.53 6.17L15.72 7.91L15.78 7.91L15.78 7.91Q15.96 7.49 16.23 7.14L16.23 7.14L16.23 7.14Q16.51 6.79 16.83 6.54L16.83 6.54L16.83 6.54Q17.15 6.30 17.50 6.16L17.50 6.16L17.50 6.16Q17.85 6.02 18.21 6.02L18.21 6.02L18.21 6.02Q18.66 6.02 18.92 6.24L18.92 6.24L18.92 6.24Q19.18 6.45 19.18 6.82L19.18 6.82L19.18 6.82Q19.18 7.15 18.97 7.34L18.97 7.34L18.97 7.34Q18.76 7.53 18.37 7.53L18.37 7.53L18.37 7.53Q18.14 7.53 17.99 7.48L17.99 7.48L17.99 7.48Q17.84 7.42 17.72 7.36L17.72 7.36L17.72 7.36Q17.60 7.29 17.49 7.24L17.49 7.24L17.49 7.24Q17.39 7.18 17.26 7.18L17.26 7.18L17.26 7.18Q16.88 7.18 16.51 7.67L16.51 7.67L16.51 7.67Q16.13 8.15 15.92 8.89L15.92 8.89L15.92 8.89Q15.81 9.30 15.74 9.81L15.74 9.81L15.74 9.81Q15.68 10.32 15.68 10.88L15.68 10.88ZM20.73 13.09L20.45 13.58L20.15 13.58L20.15 11.17L20.50 11.17L20.50 11.17Q21.04 13.15 22.48 13.15L22.48 13.15L22.48 13.15Q23.04 13.15 23.37 12.87L23.37 12.87L23.37 12.87Q23.70 12.60 23.70 12.04L23.70 12.04L23.70 12.04Q23.70 11.83 23.64 11.68L23.64 11.68L23.64 11.68Q23.58 11.54 23.40 11.38L23.40 11.38L23.40 11.38Q23.23 11.21 22.91 11.00L22.91 11.00L22.91 11.00Q22.60 10.79 22.08 10.47L22.08 10.47L22.08 10.47Q21.60 10.18 21.25 9.93L21.25 9.93L21.25 9.93Q20.90 9.67 20.66 9.41L20.66 9.41L20.66 9.41Q20.43 9.16 20.31 8.86L20.31 8.86L20.31 8.86Q20.19 8.57 20.19 8.18L20.19 8.18L20.19 8.18Q20.19 7.70 20.35 7.30L20.35 7.30L20.35 7.30Q20.51 6.90 20.79 6.62L20.79 6.62L20.79 6.62Q21.07 6.34 21.45 6.18L21.45 6.18L21.45 6.18Q21.83 6.02 22.27 6.02L22.27 6.02L22.27 6.02Q22.65 6.02 23.06 6.14L23.06 6.14L23.06 6.14Q23.46 6.26 23.77 6.45L23.77 6.45L24.05 6.16L24.32 6.16L24.32 8.18L23.95 8.18L23.95 8.18Q23.65 7.32 23.28 6.96L23.28 6.96L23.28 6.96Q22.92 6.59 22.39 6.59L22.39 6.59L22.39 6.59Q21.91 6.59 21.62 6.85L21.62 6.85L21.62 6.85Q21.34 7.10 21.34 7.55L21.34 7.55L21.34 7.55Q21.34 7.78 21.41 7.96L21.41 7.96L21.41 7.96Q21.49 8.13 21.66 8.30L21.66 8.30L21.66 8.30Q21.83 8.47 22.09 8.64L22.09 8.64L22.09 8.64Q22.34 8.82 22.71 9.04L22.71 9.04L22.71 9.04Q23.31 9.42 23.74 9.72L23.74 9.72L23.74 9.72Q24.16 10.01 24.43 10.30L24.43 10.30L24.43 10.30Q24.70 10.58 24.82 10.89L24.82 10.89L24.82 10.89Q24.95 11.20 24.95 11.59L24.95 11.59L24.95 11.59Q24.95 12.59 24.30 13.15L24.30 13.15L24.30 13.15Q23.66 13.72 22.61 13.72L22.61 13.72L22.61 13.72Q21.52 13.72 20.73 13.09L20.73 13.09ZM30.16 6.02L30.16 6.02L30.16 6.02Q30.95 6.02 31.67 6.31L31.67 6.31L31.67 6.31Q32.38 6.59 32.92 7.10L32.92 7.10L32.92 7.10Q33.46 7.60 33.78 8.29L33.78 8.29L33.78 8.29Q34.09 8.99 34.09 9.81L34.09 9.81L34.09 9.81Q34.09 10.67 33.78 11.38L33.78 11.38L33.78 11.38Q33.46 12.10 32.92 12.61L32.92 12.61L32.92 12.61Q32.38 13.13 31.67 13.43L31.67 13.43L31.67 13.43Q30.95 13.72 30.16 13.72L30.16 13.72L30.16 13.72Q29.37 13.72 28.67 13.43L28.67 13.43L28.67 13.43Q27.96 13.15 27.43 12.63L27.43 12.63L27.43 12.63Q26.89 12.11 26.59 11.39L26.59 11.39L26.59 11.39Q26.28 10.67 26.28 9.81L26.28 9.81L26.28 9.81Q26.28 8.99 26.59 8.29L26.59 8.29L26.59 8.29Q26.89 7.59 27.43 7.08L27.43 7.08L27.43 7.08Q27.96 6.58 28.67 6.30L28.67 6.30L28.67 6.30Q29.37 6.02 30.16 6.02ZM30.16 6.69L30.16 6.69L30.16 6.69Q29.64 6.69 29.21 6.92L29.21 6.92L29.21 6.92Q28.78 7.14 28.48 7.55L28.48 7.55L28.48 7.55Q28.18 7.97 28.02 8.55L28.02 8.55L28.02 8.55Q27.86 9.13 27.86 9.83L27.86 9.83L27.86 9.83Q27.86 10.56 28.02 11.14L28.02 11.14L28.02 11.14Q28.18 11.73 28.48 12.14L28.48 12.14L28.48 12.14Q28.78 12.56 29.20 12.78L29.20 12.78L29.20 12.78Q29.62 13.01 30.16 13.01L30.16 13.01L30.16 13.01Q30.69 13.01 31.12 12.78L31.12 12.78L31.12 12.78Q31.56 12.56 31.86 12.14L31.86 12.14L31.86 12.14Q32.17 11.72 32.34 11.13L32.34 11.13L32.34 11.13Q32.51 10.54 32.51 9.83L32.51 9.83L32.51 9.83Q32.51 9.13 32.34 8.55L32.34 8.55L32.34 8.55Q32.17 7.98 31.86 7.57L31.86 7.57L31.86 7.57Q31.56 7.15 31.12 6.92L31.12 6.92L31.12 6.92Q30.69 6.69 30.16 6.69ZM35.70 12.81L35.70 12.81L35.70 12.81Q35.70 12.42 35.97 12.15L35.97 12.15L35.97 12.15Q36.23 11.89 36.61 11.89L36.61 11.89L36.61 11.89Q37.00 11.89 37.27 12.15L37.27 12.15L37.27 12.15Q37.53 12.42 37.53 12.81L37.53 12.81L37.53 12.81Q37.53 13.19 37.27 13.45L37.27 13.45L37.27 13.45Q37.00 13.72 36.61 13.72L36.61 13.72L36.61 13.72Q36.23 13.72 35.97 13.45L35.97 13.45L35.97 13.45Q35.70 13.19 35.70 12.81ZM45.14 12.01L45.56 12.42L45.56 12.42Q45.05 13.03 44.25 13.38L44.25 13.38L44.25 13.38Q43.46 13.72 42.53 13.72L42.53 13.72L42.53 13.72Q41.79 13.72 41.17 13.45L41.17 13.45L41.17 13.45Q40.54 13.17 40.10 12.68L40.10 12.68L40.10 12.68Q39.65 12.18 39.40 11.48L39.40 11.48L39.40 11.48Q39.16 10.78 39.16 9.93L39.16 9.93L39.16 9.93Q39.16 9.03 39.44 8.31L39.44 8.31L39.44 8.31Q39.72 7.59 40.23 7.08L40.23 7.08L40.23 7.08Q40.74 6.57 41.46 6.29L41.46 6.29L41.46 6.29Q42.18 6.02 43.05 6.02L43.05 6.02L43.05 6.02Q43.60 6.02 44.04 6.11L44.04 6.11L44.04 6.11Q44.49 6.20 44.82 6.36L44.82 6.36L44.82 6.36Q45.15 6.52 45.33 6.75L45.33 6.75L45.33 6.75Q45.51 6.99 45.51 7.25L45.51 7.25L45.51 7.25Q45.51 7.53 45.33 7.69L45.33 7.69L45.33 7.69Q45.15 7.84 44.83 7.84L44.83 7.84L44.83 7.84Q44.58 7.84 44.41 7.74L44.41 7.74L44.41 7.74Q44.24 7.63 43.97 7.27L43.97 7.27L43.97 7.27Q43.69 6.94 43.44 6.81L43.44 6.81L43.44 6.81Q43.18 6.68 42.77 6.68L42.77 6.68L42.77 6.68Q41.78 6.68 41.27 7.45L41.27 7.45L41.27 7.45Q40.75 8.22 40.75 9.72L40.75 9.72L40.75 9.72Q40.75 11.33 41.32 12.16L41.32 12.16L41.32 12.16Q41.89 12.99 42.98 12.99L42.98 12.99L42.98 12.99Q43.57 12.99 44.09 12.76L44.09 12.76L44.09 12.76Q44.60 12.53 45.14 12.01L45.14 12.01ZM49 9.51L49 11.38L49 11.38Q49 11.96 49.03 12.29L49.03 12.29L49.03 12.29Q49.06 12.61 49.17 12.79L49.17 12.79L49.17 12.79Q49.29 12.96 49.52 13.02L49.52 13.02L49.52 13.02Q49.76 13.08 50.16 13.10L50.16 13.10L50.16 13.58L46.49 13.58L46.49 13.10L46.49 13.10Q46.89 13.08 47.12 13.02L47.12 13.02L47.12 13.02Q47.35 12.96 47.47 12.80L47.47 12.80L47.47 12.80Q47.60 12.63 47.63 12.32L47.63 12.32L47.63 12.32Q47.67 12.01 47.67 11.48L47.67 11.48L47.67 9.62L47.67 9.62Q47.67 7.95 47.59 7.59L47.59 7.59L47.59 7.59Q47.54 7.41 47.48 7.29L47.48 7.29L47.48 7.29Q47.42 7.17 47.29 7.10L47.29 7.10L47.29 7.10Q47.17 7.04 46.97 7.02L46.97 7.02L46.97 7.02Q46.77 7 46.47 7L46.47 7L46.47 6.55L48.71 6.02L48.87 7.41L48.93 7.41L48.93 7.41Q49.46 6.75 50.18 6.38L50.18 6.38L50.18 6.38Q50.89 6.02 51.73 6.02L51.73 6.02L51.73 6.02Q52.37 6.02 52.91 6.23L52.91 6.23L52.91 6.23Q53.44 6.44 53.72 6.80L53.72 6.80L53.72 6.80Q53.96 7.13 54.05 7.64L54.05 7.64L54.05 7.64Q54.15 8.15 54.15 9.04L54.15 9.04L54.15 11.38L54.15 11.38Q54.15 11.96 54.19 12.29L54.19 12.29L54.19 12.29Q54.22 12.61 54.33 12.79L54.33 12.79L54.33 12.79Q54.45 12.96 54.68 13.02L54.68 13.02L54.68 13.02Q54.91 13.08 55.29 13.10L55.29 13.10L55.29 13.58L51.66 13.58L51.66 13.10L51.66 13.10Q52.05 13.09 52.28 13.03L52.28 13.03L52.28 13.03Q52.51 12.96 52.63 12.80L52.63 12.80L52.63 12.80Q52.75 12.63 52.79 12.31L52.79 12.31L52.79 12.31Q52.82 12.00 52.82 11.48L52.82 11.48L52.82 9.63L52.82 9.63Q52.82 8.83 52.74 8.29L52.74 8.29L52.74 8.29Q52.65 7.74 52.46 7.41L52.46 7.41L52.46 7.41Q52.28 7.07 51.97 6.92L51.97 6.92L51.97 6.92Q51.66 6.78 51.23 6.78L51.23 6.78L51.23 6.78Q50.60 6.78 50.07 7.10L50.07 7.10L50.07 7.10Q49.55 7.43 49.25 8.01L49.25 8.01L49.25 8.01Q49.18 8.15 49.13 8.27L49.13 8.27L49.13 8.27Q49.08 8.40 49.06 8.57L49.06 8.57L49.06 8.57Q49.03 8.74 49.01 8.95L49.01 8.95L49.01 8.95Q49 9.17 49 9.51L49 9.51Z"></path></g> <!----> <g data-v-1084b650="" id="2ca969d3-f7ac-2c43-139c-3d0d662626b3" stroke="none" fill="#488eff" transform="matrix(0.23071749130627509,0,0,0.23071749130627509,36.24149855114801,113.23632018604664)"><svg xmlns="http://www.w3.org/2000/svg" viewBox="0 0 100 100"><path d="M23.637 21.791a.56.56 0 0 0-.582.883c2.918 3.753.1 9.885.072 9.947a.559.559 0 0 0 1.004.486c.594-1.188 3.455-3.549 4.507-4.358a.558.558 0 0 0 .218-.452c-.085-5.118-5.169-6.494-5.219-6.506zM76.734 24.011a.566.566 0 0 0-.606-.238 7.14 7.14 0 0 0-1.159.437c-1.497.703-4.021 2.421-4.107 6.032a.556.556 0 0 0 .214.455c1.046.816 3.891 3.197 4.474 4.391a.559.559 0 0 0 .739.259l.002-.002a.556.556 0 0 0 .268-.738c-.027-.061-2.806-6.206.146-9.946a.566.566 0 0 0 .029-.65zM57.357 77.198c-1.081-1.701-2.528-2.694-4.075-2.802-.442-.03-.901-.043-1.352.053-4.316.92-5.012 6.443-5.024 6.604-.1 1.458.43 2.863 1.493 3.963 1.041 1.075 2.471 1.728 4.028 1.832a6.409 6.409 0 0 0 2.052-.188c2.365-.616 4.056-2.546 4.211-4.798.098-1.431-.414-3.218-1.333-4.664zm-8.111 1.79c.704-1.321 1.389-2.914 3.66-2.962 1.71-.036 2.781 1.394 3.476 2.78-2.893-.745-5.366-.404-7.136.182z"></path><path d="M80.618 38.339c-.614-.76-1.205-1.701-1.174-1.798a77.865 77.865 0 0 0 1.555-5.683c1.53-6.696 1.295-11.08-.665-12.346-1.166-.755-2.428-1.077-3.732-1.077-4.383 0-9.251 3.639-12.638 6.781l-.274.254c-.002.009-.727.261-1.5.261-.333 0-.674-.047-.973-.178-3.299-1.002-6.775-1.51-10.37-1.51-.385 0-.771.004-1.16.016-3.569.109-6.979.505-10.158 1.18.059.052.082.076.072.076-.168 0-8.669-6.116-15.022-6.116l-.199.002c-1.768.035-3.381.528-4.362 1.958-4.369 6.354-.144 14.034-.026 14.203l-1.329 1.152C6.757 47.895 3.813 65.806 3.25 70.283a17.31 17.31 0 0 1 1.781-.082c3.161 0 7.06.663 10.167 1.324.05.011.105.021.156.031 4.826 1.037 10.267 2.62 14.199 4.133 1.71.675 3.324 1.534 4.857 2.479 2.332 1.437 4.474 3.074 6.452 4.593 4.194 3.221 7.86 6.034 11.792 6.034.319 0 .639-.017.961-.056 4.634-.552 7.691-3.222 10.929-6.051 1.243-1.087 2.524-2.181 3.909-3.193.977-.712 1.994-1.389 3.121-1.966a71.833 71.833 0 0 1 15.167-5.76c4.244-1.075 7.46-1.456 9.003-1.588-.961-3.945-5.253-19.688-15.126-31.842zM37.066 56.795a2.748 2.748 0 0 1 1.967-3.354 2.75 2.75 0 1 1-1.967 3.354zm23.383-1.069a2.753 2.753 0 1 1 5.301 1.485 2.753 2.753 0 0 1-5.301-1.485zm8.642-4.252c-2.511-1.086-4.593-1.614-6.365-1.614-5.063.001-6.044 4.364-6.521 6.496l-1.861 9.621-.211 1.088 1.066.297c8.541 2.386 11.157 8.814 11.906 11.644-1.229.938-2.364 1.917-3.352 2.779-3.226 2.819-6.012 5.255-10.279 5.762a7.243 7.243 0 0 1-.819.049c-3.526 0-7.018-2.682-11.061-5.786-1.739-1.335-3.688-2.83-5.827-4.205 1.937-7.563 10.021-10.041 11.67-10.471l1.073-.279-.191-1.092-1.702-9.687c-.441-2.134-1.36-6.573-6.554-6.573-1.74 0-3.782.493-6.238 1.506C25.976 54.244 18.203 63.1 14.537 70.16c-3.805-.771-6.999-1.162-9.506-1.162-.132 0-.26.001-.389.003.954-6.259 4.283-21.598 14.85-32.614l1.288-1.116.818-.71-.595-.85c-.226-.409-3.872-7.231.005-12.87.641-.935 1.752-1.404 3.396-1.437l.174-.002c3.393 0 8.05 1.885 13.845 5.601.647.416.803.514 1.178.514h.832l.097-.256c2.891-.566 5.979-.902 9.194-1 .375-.012.75-.017 1.123-.017 3.442 0 6.792.484 9.962 1.441a3.64 3.64 0 0 0 1.38.247c.816 0 1.787-.115 2.313-.591l.006.007.271-.251c3.179-2.947 7.808-6.461 11.821-6.461 1.151 0 2.159.289 3.079.884 1.129.729 1.759 4.018.147 11.068a76.636 76.636 0 0 1-1.53 5.593c-.115.363-.271.859 1.387 2.916C88.485 49.931 92.76 63.55 94.236 69.13a61.031 61.031 0 0 0-6.839 1.242C83.91 63.45 76.899 54.855 69.091 51.474z"></path></svg></g></svg>